<?xml version="1.0" standalone="no"?>
<!DOCTYPE svg PUBLIC "-//W3C//DTD SVG 20010904//EN"
 "http://www.w3.org/TR/2001/REC-SVG-20010904/DTD/svg10.dtd">
<svg version="1.0" xmlns="http://www.w3.org/2000/svg"
 width="800.000000pt" height="800.000000pt" viewBox="0 0 800.000000 800.000000"
 preserveAspectRatio="xMidYMid meet">
<metadata>
Created by potrace 1.14, written by Peter Selinger 2001-2017
</metadata>
<g transform="translate(0.000000,800.000000) scale(0.100000,-0.100000)"
fill="#000000" stroke="none">
<path d="M0 4000 l0 -4000 4000 0 4000 0 0 4000 0 4000 -4000 0 -4000 0 0
-4000z m3105 1210 l0 -105 -225 -5 -225 -5 -3 -77 c-3 -92 -13 -87 163 -91
l120 -2 0 -100 0 -100 -140 -5 -140 -5 -3 -82 -3 -83 229 0 c164 0 231 -3 240
-12 16 -16 16 -180 0 -196 -17 -17 -749 -17 -766 0 -9 9 -12 129 -12 479 0
257 3 475 6 483 6 15 46 16 383 14 l376 -3 0 -105z m433 -277 l2 -383 223 -2
222 -3 3 -96 c2 -73 -1 -99 -11 -108 -11 -8 -112 -11 -373 -9 l-359 3 -3 480
c-1 264 0 486 3 493 3 10 39 12 147 10 l143 -3 3 -382z m860 -97 c1 -345 -1
-483 -9 -492 -15 -19 -269 -20 -287 -2 -18 18 -17 949 0 966 9 9 52 12 153 10
l140 -3 3 -479z m570 472 c5 -7 40 -107 77 -223 57 -179 85 -252 85 -222 0 19
124 415 136 435 15 22 16 22 222 20 l207 -3 0 -490 0 -490 -145 0 -145 0 -3
318 c-1 174 -6 317 -10 317 -4 0 -52 -143 -107 -318 l-100 -317 -95 0 -95 0
-98 300 c-54 165 -101 307 -105 315 -4 8 -9 -127 -12 -300 l-5 -315 -115 0
-115 0 -3 480 c-1 264 0 486 3 493 3 9 54 12 208 12 152 0 207 -3 215 -12z
m-2819 -1593 c10 -11 46 -103 79 -204 33 -101 62 -179 64 -175 3 5 29 88 58
184 29 98 61 184 71 195 18 19 33 20 227 20 114 0 215 -3 225 -7 16 -7 17 -41
17 -506 0 -452 -2 -501 -17 -513 -22 -19 -296 -20 -315 -1 -10 10 -14 76 -18
263 l-5 249 -79 -250 c-44 -138 -86 -256 -94 -263 -21 -17 -171 -21 -202 -5
-20 11 -37 51 -106 263 l-82 250 -1 -246 c-1 -216 -3 -248 -18 -260 -22 -19
-194 -25 -234 -9 -16 7 -32 22 -34 34 -3 11 -4 237 -3 501 l3 479 25 13 c19
10 76 13 222 11 182 -3 199 -5 217 -23z m1621 12 c24 -12 25 -17 28 -117 4
-154 20 -144 -242 -148 l-216 -3 0 -55 0 -54 129 0 c161 0 161 0 161 -137 0
-131 -2 -133 -165 -133 l-125 0 0 -60 0 -60 224 0 c179 0 226 -3 235 -14 8 -9
11 -51 9 -122 -3 -104 -4 -109 -28 -121 -19 -10 -109 -13 -398 -11 -357 3
-374 4 -388 22 -12 17 -14 101 -14 501 0 497 1 504 40 518 8 3 175 6 370 6
267 1 361 -2 380 -12z m675 -12 c197 -42 345 -180 385 -360 16 -70 13 -220 -5
-288 -48 -184 -171 -303 -365 -354 -87 -22 -537 -26 -563 -4 -15 12 -17 59
-17 506 0 519 -1 505 45 519 39 11 449 -4 520 -19z m801 1 c12 -17 14 -101 14
-497 0 -455 -1 -478 -19 -500 -19 -23 -24 -24 -161 -24 -137 0 -142 1 -161 24
-18 22 -19 45 -19 490 0 256 3 476 6 488 9 34 48 42 192 40 119 -2 135 -4 148
-21z m764 -1 c19 -20 350 -936 350 -970 0 -8 -9 -24 -20 -35 -18 -18 -33 -20
-159 -20 -167 0 -169 1 -208 115 l-28 80 -136 3 -136 3 -33 -92 c-39 -108 -41
-109 -183 -109 -113 0 -147 13 -147 55 0 26 326 953 342 972 15 18 43 21 195
20 129 -2 144 -4 163 -22z"/>
<path d="M1730 3215 l0 -465 95 0 95 0 2 306 c3 278 5 308 20 318 13 8 21 7
29 -1 6 -6 55 -147 108 -314 l98 -304 78 0 79 0 52 165 c29 91 73 231 99 312
45 143 58 164 90 152 13 -5 15 -50 15 -320 l0 -314 125 0 125 0 0 465 0 465
-193 0 -194 0 -52 -172 c-81 -270 -82 -273 -111 -273 -24 0 -29 12 -99 223
l-73 222 -194 0 -194 0 0 -465z"/>
<path d="M3030 3215 l0 -465 365 0 365 0 0 80 0 80 -223 0 c-267 0 -257 -4
-257 111 0 113 1 113 164 117 l136 4 0 79 0 79 -134 0 c-162 0 -166 3 -166
110 0 108 -9 104 249 108 l221 3 0 80 0 79 -360 0 -360 0 0 -465z"/>
<path d="M3930 3215 l0 -465 233 0 c252 0 301 7 403 57 61 30 141 109 173 171
33 66 51 149 51 243 0 240 -131 400 -367 445 -50 9 -143 14 -284 14 l-209 0 0
-465z m468 276 c88 -45 127 -129 127 -271 -1 -194 -71 -284 -242 -311 -109
-18 -103 -37 -103 307 0 289 0 295 21 302 32 12 153 -4 197 -27z"/>
<path d="M4230 3215 l0 -255 43 0 c87 1 165 60 188 142 14 53 14 183 -1 237
-21 78 -98 131 -192 131 l-38 0 0 -255z"/>
<path d="M4960 3215 l0 -465 125 0 125 0 0 465 0 465 -125 0 -125 0 0 -465z"/>
<path d="M5679 3653 c-16 -42 -319 -897 -319 -900 0 -2 47 -3 104 -3 l103 0
32 89 c18 49 39 92 47 95 26 10 304 7 324 -4 12 -6 29 -43 46 -95 l28 -85 133
0 132 0 -34 98 c-20 53 -93 261 -164 462 l-129 365 -146 3 -146 3 -11 -28z
m198 -358 c65 -182 62 -187 -77 -183 -122 4 -125 9 -86 121 67 192 65 188 94
185 23 -3 30 -14 69 -123z"/>
<path d="M5777 3257 c-15 -41 -27 -80 -27 -86 0 -7 23 -11 59 -11 l60 0 -24
70 c-38 111 -38 111 -68 27z"/>
</g>
</svg>
